<svg style="width:0; height:0; visibility: hidden;" xmlns="http://www.w3.org/2000/svg">
	<symbol id="svg-monitoring" viewBox="0 0 32 32">
		<g>
			<path fill-rule="evenodd" clip-rule="evenodd"
				d="M2.66675 16C2.66675 8.63622 8.63629 2.66669 16.0001 2.66669C23.3639 2.66669 29.3334 8.63622 29.3334 16C29.3334 23.3638 23.3639 29.3334 16.0001 29.3334C8.63629 29.3334 2.66675 23.3638 2.66675 16ZM15.0001 6.66669C15.0001 6.1144 15.4478 5.66669 16.0001 5.66669C21.707 5.66669 26.3334 10.2931 26.3334 16C26.3334 21.707 21.707 26.3334 16.0001 26.3334C10.2931 26.3334 5.66675 21.707 5.66675 16C5.66675 15.4477 6.11446 15 6.66675 15C7.21903 15 7.66675 15.4477 7.66675 16C7.66675 20.6024 11.3977 24.3334 16.0001 24.3334C20.6025 24.3334 24.3334 20.6024 24.3334 16C24.3334 11.3976 20.6025 7.66669 16.0001 7.66669C15.4478 7.66669 15.0001 7.21897 15.0001 6.66669ZM16.0001 9.66669C15.4478 9.66669 15.0001 10.1144 15.0001 10.6667C15.0001 11.219 15.4478 11.6667 16.0001 11.6667C18.3933 11.6667 20.3334 13.6068 20.3334 16C20.3334 18.3933 18.3933 20.3334 16.0001 20.3334C15.4478 20.3334 15.0001 20.7811 15.0001 21.3334C15.0001 21.8856 15.4478 22.3334 16.0001 22.3334C19.4979 22.3334 22.3334 19.4978 22.3334 16C22.3334 12.5022 19.4979 9.66669 16.0001 9.66669Z"
				fill="currentColor" />
			
		</g>
	</symbol>
	<symbol id="svg-task"  viewBox="0 0 32 32">
		<g>

			<path
				d="M10.6667 4.66669C10.6667 3.56212 11.5621 2.66669 12.6667 2.66669H19.3333C20.4379 2.66669 21.3333 3.56212 21.3333 4.66669V6.00002C21.3333 7.10459 20.4379 8.00002 19.3333 8.00002H12.6667C11.5621 8.00002 10.6667 7.10459 10.6667 6.00002V4.66669Z"
				fill="currentColor" />
			<path fill-rule="evenodd" clip-rule="evenodd"
				d="M8.66667 5.38217C6.98946 5.47628 5.93064 5.74354 5.17157 6.50261C4 7.67418 4 9.5598 4 13.331V21.331C4 25.1023 4 26.9879 5.17157 28.1595C6.34315 29.331 8.22876 29.331 12 29.331H20C23.7712 29.331 25.6569 29.331 26.8284 28.1595C28 26.9879 28 25.1023 28 21.331V13.331C28 9.5598 28 7.67418 26.8284 6.50261C26.0694 5.74354 25.0105 5.47628 23.3333 5.38217V6.00002C23.3333 8.20916 21.5425 10 19.3333 10H12.6667C10.4575 10 8.66667 8.20916 8.66667 6.00002V5.38217ZM8.33333 14C8.33333 13.4477 8.78105 13 9.33333 13H22.6667C23.219 13 23.6667 13.4477 23.6667 14C23.6667 14.5523 23.219 15 22.6667 15H9.33333C8.78105 15 8.33333 14.5523 8.33333 14ZM9.66667 18.6667C9.66667 18.1144 10.1144 17.6667 10.6667 17.6667H21.3333C21.8856 17.6667 22.3333 18.1144 22.3333 18.6667C22.3333 19.219 21.8856 19.6667 21.3333 19.6667H10.6667C10.1144 19.6667 9.66667 19.219 9.66667 18.6667ZM11 23.3334C11 22.7811 11.4477 22.3334 12 22.3334H20C20.5523 22.3334 21 22.7811 21 23.3334C21 23.8856 20.5523 24.3334 20 24.3334H12C11.4477 24.3334 11 23.8856 11 23.3334Z"
				fill="currentColor" />
			
		</g>
	</symbol>

	<symbol id="svg-rating"  viewBox="0 0 32 32">
		<g>

			<path
				d="M23.0572 3.05721C22.6667 3.44774 22.6667 4.07627 22.6667 5.33335V22.6667C22.6667 23.9238 22.6667 24.5523 23.0572 24.9428C23.4477 25.3334 24.0763 25.3334 25.3333 25.3334C26.5904 25.3334 27.219 25.3334 27.6095 24.9428C28 24.5523 28 23.9238 28 22.6667V5.33335C28 4.07627 28 3.44774 27.6095 3.05721C27.219 2.66669 26.5904 2.66669 25.3333 2.66669C24.0763 2.66669 23.4477 2.66669 23.0572 3.05721Z"
				fill="currentColor" />
			<path
				d="M13.3333 9.33335C13.3333 8.07627 13.3333 7.44774 13.7239 7.05721C14.1144 6.66669 14.7429 6.66669 16 6.66669C17.2571 6.66669 17.8856 6.66669 18.2761 7.05721C18.6667 7.44774 18.6667 8.07627 18.6667 9.33335V22.6667C18.6667 23.9238 18.6667 24.5523 18.2761 24.9428C17.8856 25.3334 17.2571 25.3334 16 25.3334C14.7429 25.3334 14.1144 25.3334 13.7239 24.9428C13.3333 24.5523 13.3333 23.9238 13.3333 22.6667V9.33335Z"
				fill="currentColor" />
			<path
				d="M4.39052 12.3905C4 12.7811 4 13.4096 4 14.6667V22.6667C4 23.9238 4 24.5523 4.39052 24.9428C4.78105 25.3334 5.40959 25.3334 6.66667 25.3334C7.92375 25.3334 8.55229 25.3334 8.94281 24.9428C9.33333 24.5523 9.33333 23.9238 9.33333 22.6667V14.6667C9.33333 13.4096 9.33333 12.7811 8.94281 12.3905C8.55229 12 7.92375 12 6.66667 12C5.40959 12 4.78105 12 4.39052 12.3905Z"
				fill="currentColor" />
			<path
				d="M4 28.3334C3.44772 28.3334 3 28.7811 3 29.3334C3 29.8856 3.44772 30.3334 4 30.3334H28C28.5523 30.3334 29 29.8856 29 29.3334C29 28.7811 28.5523 28.3334 28 28.3334H4Z"
				fill="currentColor" />
			
		</g>
	</symbol>
	<symbol id="svg-profile" viewBox="0 0 32 32">
		<g>

			<circle cx="16.0001" cy="8.00002" r="5.33333" fill="currentColor" />
			<ellipse cx="16.0001" cy="22.6666" rx="9.33333" ry="5.33333" fill="currentColor" />
			
		</g>
	</symbol>

	<symbol id="svg-chevron" viewBox="0 0 24 25">
		<g>
			<path d="M9 5.5L15 12.5L9 19.5" stroke="currentColor" fill="transparent"
				stroke-width="1.5"
				stroke-linecap="round" stroke-linejoin="round" />
		</g>
	</symbol>
	<symbol id="svg-exit" viewBox="0 0 19 19">
		<g>

			<path
				d="M6.33472 5.54168C6.3443 3.81978 6.42066 2.88727 7.02896 2.27896C7.72458 1.58334 8.84417 1.58334 11.0833 1.58334H11.875C14.1142 1.58334 15.2338 1.58334 15.9294 2.27896C16.625 2.97459 16.625 4.09417 16.625 6.33334V12.6667C16.625 14.9058 16.625 16.0254 15.9294 16.7211C15.2338 17.4167 14.1142 17.4167 11.875 17.4167H11.0833C8.84417 17.4167 7.72458 17.4167 7.02896 16.7211C6.42066 16.1128 6.3443 15.1802 6.33472 13.4583"
				stroke="currentColor" stroke-width="1.2" stroke-linecap="round" fill="transparent" />
			<path
				d="M6.33333 15.4375C4.46736 15.4375 3.53437 15.4375 2.95468 14.8578C2.375 14.2781 2.375 13.3451 2.375 11.4792V7.52083C2.375 5.65486 2.375 4.72187 2.95468 4.14218C3.53437 3.5625 4.46736 3.5625 6.33333 3.5625"
				stroke="currentColor" stroke-width="1.2" fill="transparent" />
			<path
				d="M11.875 9.49999L4.75 9.49999M4.75 9.49999L6.33333 11.0833M4.75 9.49999L6.33333 7.91666"
				stroke="currentColor" stroke-width="1.2" stroke-linecap="round"
				stroke-linejoin="round" fill="transparent" />
			
		</g>
	</symbol>
	<symbol id="svg-search" viewBox="0 0 19 19">
		<g>

			<path
				d="M8.70833 15.0417C12.2061 15.0417 15.0417 12.2061 15.0417 8.70833C15.0417 5.21053 12.2061 2.375 8.70833 2.375C5.21053 2.375 2.375 5.21053 2.375 8.70833C2.375 12.2061 5.21053 15.0417 8.70833 15.0417Z"
				stroke="currentColor" stroke-linecap="round" stroke-linejoin="round" />
			<path d="M16.6249 16.625L13.1812 13.1812" stroke="currentColor" stroke-linecap="round"
				stroke-linejoin="round" />
			
		</g>
	</symbol>

	<symbol id="svg-notify" viewBox="0 0 29 29">
		<g>
			<path
				d="M22.6552 11.7324V10.881C22.6552 6.20627 19.004 2.41666 14.5 2.41666C9.99601 2.41666 6.3448 6.20627 6.3448 10.881V11.7324C6.3448 12.7541 6.05341 13.753 5.50734 14.6032L4.16918 16.6865C2.94691 18.5894 3.88001 21.1759 6.00585 21.7777C11.5671 23.3519 17.4329 23.3519 22.9941 21.7777C25.12 21.1759 26.0531 18.5894 24.8308 16.6865L23.4927 14.6032C22.9466 13.753 22.6552 12.7541 22.6552 11.7324Z"
				stroke="currentColor" stroke-width="2" />
			<path
				d="M9.0625 22.9583C9.85399 25.0703 11.9896 26.5833 14.5 26.5833C17.0104 26.5833 19.146 25.0703 19.9375 22.9583"
				stroke="currentColor" stroke-width="2" stroke-linecap="round" />
		</g>
	</symbol>
	<symbol id="svg-sort" viewBox="0 0 19 19"><g>

			<path d="M3.16675 13.4583H8.70841" stroke="currentColor" stroke-width="1.5"
				stroke-linecap="round" />
			<path d="M3.16675 9.5L8.70841 9.5" stroke="currentColor" stroke-width="1.5"
				stroke-linecap="round" />
			<path d="M3.16675 5.54166L8.70841 5.54166" stroke="currentColor" stroke-width="1.5"
				stroke-linecap="round" />
			<path
				d="M13.4583 3.16668L13.4583 15.8333M13.4583 3.16668L11.0833 6.33334M13.4583 3.16668L15.8333 6.33334M13.4583 15.8333L15.8333 12.6667M13.4583 15.8333L11.0833 12.6667"
				stroke="currentColor" stroke-width="1.5" stroke-linecap="round"
				stroke-linejoin="round" />
		
	</g>
    </symbol>

	<symbol id="svg-check" viewBox="0 0 20 20">
		<g>

			<path d="M5.26318 10.5263L8.02008 13.6842L14.9123 5.78946" fill="transparent"
				stroke="white"
				stroke-width="1.5" stroke-linecap="round" stroke-linejoin="round" />
			
		</g>
	</symbol>
	<symbol id="svg-settings" viewBox="0 0 24 24">
		<g>

			<circle cx="12" cy="12" r="3" stroke="currentColor" stroke-width="1.5" />
			<path
				d="M13.7654 2.15224C13.3978 2 12.9319 2 12 2C11.0681 2 10.6022 2 10.2346 2.15224C9.74457 2.35523 9.35522 2.74458 9.15223 3.23463C9.05957 3.45834 9.0233 3.7185 9.00911 4.09799C8.98826 4.65568 8.70226 5.17189 8.21894 5.45093C7.73564 5.72996 7.14559 5.71954 6.65219 5.45876C6.31645 5.2813 6.07301 5.18262 5.83294 5.15102C5.30704 5.08178 4.77518 5.22429 4.35436 5.5472C4.03874 5.78938 3.80577 6.1929 3.33983 6.99993C2.87389 7.80697 2.64092 8.21048 2.58899 8.60491C2.51976 9.1308 2.66227 9.66266 2.98518 10.0835C3.13256 10.2756 3.3397 10.437 3.66119 10.639C4.1338 10.936 4.43789 11.4419 4.43786 12C4.43783 12.5581 4.13375 13.0639 3.66118 13.3608C3.33965 13.5629 3.13248 13.7244 2.98508 13.9165C2.66217 14.3373 2.51966 14.8691 2.5889 15.395C2.64082 15.7894 2.87379 16.193 3.33973 17C3.80568 17.807 4.03865 18.2106 4.35426 18.4527C4.77508 18.7756 5.30694 18.9181 5.83284 18.8489C6.07289 18.8173 6.31632 18.7186 6.65204 18.5412C7.14547 18.2804 7.73556 18.27 8.2189 18.549C8.70224 18.8281 8.98826 19.3443 9.00911 19.9021C9.02331 20.2815 9.05957 20.5417 9.15223 20.7654C9.35522 21.2554 9.74457 21.6448 10.2346 21.8478C10.6022 22 11.0681 22 12 22C12.9319 22 13.3978 22 13.7654 21.8478C14.2554 21.6448 14.6448 21.2554 14.8477 20.7654C14.9404 20.5417 14.9767 20.2815 14.9909 19.902C15.0117 19.3443 15.2977 18.8281 15.781 18.549C16.2643 18.2699 16.8544 18.2804 17.3479 18.5412C17.6836 18.7186 17.927 18.8172 18.167 18.8488C18.6929 18.9181 19.2248 18.7756 19.6456 18.4527C19.9612 18.2105 20.1942 17.807 20.6601 16.9999C21.1261 16.1929 21.3591 15.7894 21.411 15.395C21.4802 14.8691 21.3377 14.3372 21.0148 13.9164C20.8674 13.7243 20.6602 13.5628 20.3387 13.3608C19.8662 13.0639 19.5621 12.558 19.5621 11.9999C19.5621 11.4418 19.8662 10.9361 20.3387 10.6392C20.6603 10.4371 20.8675 10.2757 21.0149 10.0835C21.3378 9.66273 21.4803 9.13087 21.4111 8.60497C21.3592 8.21055 21.1262 7.80703 20.6602 7C20.1943 6.19297 19.9613 5.78945 19.6457 5.54727C19.2249 5.22436 18.693 5.08185 18.1671 5.15109C17.9271 5.18269 17.6837 5.28136 17.3479 5.4588C16.8545 5.71959 16.2644 5.73002 15.7811 5.45096C15.2977 5.17191 15.0117 4.65566 14.9909 4.09794C14.9767 3.71848 14.9404 3.45833 14.8477 3.23463C14.6448 2.74458 14.2554 2.35523 13.7654 2.15224Z"
				stroke="currentColor" stroke-width="1.5" />

		</g>
	</symbol>
	<symbol id="svg-pin"  viewBox="0 0 22 23">
		<g>
			
				<path
					d="M3.66669 9.79801C3.66669 5.67538 6.94993 2.33333 11 2.33333C15.0501 2.33333 18.3334 5.67538 18.3334 9.79801C18.3334 13.8883 15.9928 18.6614 12.341 20.3682C11.4898 20.7661 10.5103 20.7661 9.659 20.3682C6.00723 18.6614 3.66669 13.8883 3.66669 9.79801Z"
					stroke="#007AFF" stroke-width="1.5" />
				<ellipse cx="11" cy="9.66667" rx="2.75" ry="2.75" stroke="#007AFF"
					stroke-width="1.5" />
			
		</g>
	</symbol>

</svg>