<svg style="width:0; height:0; visibility: hidden;" xmlns="http://www.w3.org/2000/svg">
	<symbol id="svg-monitoring" viewBox="0 0 32 32">
		<g>
			<path fill-rule="evenodd" clip-rule="evenodd"
				d="M2.66675 16C2.66675 8.63622 8.63629 2.66669 16.0001 2.66669C23.3639 2.66669 29.3334 8.63622 29.3334 16C29.3334 23.3638 23.3639 29.3334 16.0001 29.3334C8.63629 29.3334 2.66675 23.3638 2.66675 16ZM15.0001 6.66669C15.0001 6.1144 15.4478 5.66669 16.0001 5.66669C21.707 5.66669 26.3334 10.2931 26.3334 16C26.3334 21.707 21.707 26.3334 16.0001 26.3334C10.2931 26.3334 5.66675 21.707 5.66675 16C5.66675 15.4477 6.11446 15 6.66675 15C7.21903 15 7.66675 15.4477 7.66675 16C7.66675 20.6024 11.3977 24.3334 16.0001 24.3334C20.6025 24.3334 24.3334 20.6024 24.3334 16C24.3334 11.3976 20.6025 7.66669 16.0001 7.66669C15.4478 7.66669 15.0001 7.21897 15.0001 6.66669ZM16.0001 9.66669C15.4478 9.66669 15.0001 10.1144 15.0001 10.6667C15.0001 11.219 15.4478 11.6667 16.0001 11.6667C18.3933 11.6667 20.3334 13.6068 20.3334 16C20.3334 18.3933 18.3933 20.3334 16.0001 20.3334C15.4478 20.3334 15.0001 20.7811 15.0001 21.3334C15.0001 21.8856 15.4478 22.3334 16.0001 22.3334C19.4979 22.3334 22.3334 19.4978 22.3334 16C22.3334 12.5022 19.4979 9.66669 16.0001 9.66669Z"
				fill="currentColor" />
			
		</g>
	</symbol>
	<symbol id="svg-task"  viewBox="0 0 32 32">
		<g>

			<path
				d="M10.6667 4.66669C10.6667 3.56212 11.5621 2.66669 12.6667 2.66669H19.3333C20.4379 2.66669 21.3333 3.56212 21.3333 4.66669V6.00002C21.3333 7.10459 20.4379 8.00002 19.3333 8.00002H12.6667C11.5621 8.00002 10.6667 7.10459 10.6667 6.00002V4.66669Z"
				fill="currentColor" />
			<path fill-rule="evenodd" clip-rule="evenodd"
				d="M8.66667 5.38217C6.98946 5.47628 5.93064 5.74354 5.17157 6.50261C4 7.67418 4 9.5598 4 13.331V21.331C4 25.1023 4 26.9879 5.17157 28.1595C6.34315 29.331 8.22876 29.331 12 29.331H20C23.7712 29.331 25.6569 29.331 26.8284 28.1595C28 26.9879 28 25.1023 28 21.331V13.331C28 9.5598 28 7.67418 26.8284 6.50261C26.0694 5.74354 25.0105 5.47628 23.3333 5.38217V6.00002C23.3333 8.20916 21.5425 10 19.3333 10H12.6667C10.4575 10 8.66667 8.20916 8.66667 6.00002V5.38217ZM8.33333 14C8.33333 13.4477 8.78105 13 9.33333 13H22.6667C23.219 13 23.6667 13.4477 23.6667 14C23.6667 14.5523 23.219 15 22.6667 15H9.33333C8.78105 15 8.33333 14.5523 8.33333 14ZM9.66667 18.6667C9.66667 18.1144 10.1144 17.6667 10.6667 17.6667H21.3333C21.8856 17.6667 22.3333 18.1144 22.3333 18.6667C22.3333 19.219 21.8856 19.6667 21.3333 19.6667H10.6667C10.1144 19.6667 9.66667 19.219 9.66667 18.6667ZM11 23.3334C11 22.7811 11.4477 22.3334 12 22.3334H20C20.5523 22.3334 21 22.7811 21 23.3334C21 23.8856 20.5523 24.3334 20 24.3334H12C11.4477 24.3334 11 23.8856 11 23.3334Z"
				fill="currentColor" />
			
		</g>
	</symbol>

	<symbol id="svg-rating"  viewBox="0 0 32 32">
		<g>

			<path
				d="M23.0572 3.05721C22.6667 3.44774 22.6667 4.07627 22.6667 5.33335V22.6667C22.6667 23.9238 22.6667 24.5523 23.0572 24.9428C23.4477 25.3334 24.0763 25.3334 25.3333 25.3334C26.5904 25.3334 27.219 25.3334 27.6095 24.9428C28 24.5523 28 23.9238 28 22.6667V5.33335C28 4.07627 28 3.44774 27.6095 3.05721C27.219 2.66669 26.5904 2.66669 25.3333 2.66669C24.0763 2.66669 23.4477 2.66669 23.0572 3.05721Z"
				fill="currentColor" />
			<path
				d="M13.3333 9.33335C13.3333 8.07627 13.3333 7.44774 13.7239 7.05721C14.1144 6.66669 14.7429 6.66669 16 6.66669C17.2571 6.66669 17.8856 6.66669 18.2761 7.05721C18.6667 7.44774 18.6667 8.07627 18.6667 9.33335V22.6667C18.6667 23.9238 18.6667 24.5523 18.2761 24.9428C17.8856 25.3334 17.2571 25.3334 16 25.3334C14.7429 25.3334 14.1144 25.3334 13.7239 24.9428C13.3333 24.5523 13.3333 23.9238 13.3333 22.6667V9.33335Z"
				fill="currentColor" />
			<path
				d="M4.39052 12.3905C4 12.7811 4 13.4096 4 14.6667V22.6667C4 23.9238 4 24.5523 4.39052 24.9428C4.78105 25.3334 5.40959 25.3334 6.66667 25.3334C7.92375 25.3334 8.55229 25.3334 8.94281 24.9428C9.33333 24.5523 9.33333 23.9238 9.33333 22.6667V14.6667C9.33333 13.4096 9.33333 12.7811 8.94281 12.3905C8.55229 12 7.92375 12 6.66667 12C5.40959 12 4.78105 12 4.39052 12.3905Z"
				fill="currentColor" />
			<path
				d="M4 28.3334C3.44772 28.3334 3 28.7811 3 29.3334C3 29.8856 3.44772 30.3334 4 30.3334H28C28.5523 30.3334 29 29.8856 29 29.3334C29 28.7811 28.5523 28.3334 28 28.3334H4Z"
				fill="currentColor" />
			
		</g>
	</symbol>
	<symbol id="svg-profile" viewBox="0 0 32 32">
		<g>

			<circle cx="16.0001" cy="8.00002" r="5.33333" fill="currentColor" />
			<ellipse cx="16.0001" cy="22.6666" rx="9.33333" ry="5.33333" fill="currentColor" />
			
		</g>
	</symbol>

	<symbol id="svg-chevron" viewBox="0 0 24 25">
		<g>
			<path d="M9 5.5L15 12.5L9 19.5" stroke="currentColor" fill="transparent"
				stroke-width="1.5"
				stroke-linecap="round" stroke-linejoin="round" />
		</g>
	</symbol>
	<symbol id="svg-exit" viewBox="0 0 19 19">
		<g>

			<path
				d="M6.33472 5.54168C6.3443 3.81978 6.42066 2.88727 7.02896 2.27896C7.72458 1.58334 8.84417 1.58334 11.0833 1.58334H11.875C14.1142 1.58334 15.2338 1.58334 15.9294 2.27896C16.625 2.97459 16.625 4.09417 16.625 6.33334V12.6667C16.625 14.9058 16.625 16.0254 15.9294 16.7211C15.2338 17.4167 14.1142 17.4167 11.875 17.4167H11.0833C8.84417 17.4167 7.72458 17.4167 7.02896 16.7211C6.42066 16.1128 6.3443 15.1802 6.33472 13.4583"
				stroke="currentColor" stroke-width="1.2" stroke-linecap="round" fill="transparent" />
			<path
				d="M6.33333 15.4375C4.46736 15.4375 3.53437 15.4375 2.95468 14.8578C2.375 14.2781 2.375 13.3451 2.375 11.4792V7.52083C2.375 5.65486 2.375 4.72187 2.95468 4.14218C3.53437 3.5625 4.46736 3.5625 6.33333 3.5625"
				stroke="currentColor" stroke-width="1.2" fill="transparent" />
			<path
				d="M11.875 9.49999L4.75 9.49999M4.75 9.49999L6.33333 11.0833M4.75 9.49999L6.33333 7.91666"
				stroke="currentColor" stroke-width="1.2" stroke-linecap="round"
				stroke-linejoin="round" fill="transparent" />
			
		</g>
	</symbol>
	<symbol id="svg-search" viewBox="0 0 19 19">
		<g>

				<path
					d="M8.70833 15.0417C12.2061 15.0417 15.0417 12.2061 15.0417 8.70833C15.0417 5.21053 12.2061 2.375 8.70833 2.375C5.21053 2.375 2.375 5.21053 2.375 8.70833C2.375 12.2061 5.21053 15.0417 8.70833 15.0417Z"
					stroke="currentColor" stroke-linecap="round" stroke-linejoin="round" />
				<path d="M16.6249 16.625L13.1812 13.1812" stroke="currentColor" stroke-linecap="round"
					stroke-linejoin="round" />
			
		</g>
	</symbol>

	<symbol id="svg-notify" viewBox="0 0 29 29">
		<g>
			<path
				d="M22.6552 11.7324V10.881C22.6552 6.20627 19.004 2.41666 14.5 2.41666C9.99601 2.41666 6.3448 6.20627 6.3448 10.881V11.7324C6.3448 12.7541 6.05341 13.753 5.50734 14.6032L4.16918 16.6865C2.94691 18.5894 3.88001 21.1759 6.00585 21.7777C11.5671 23.3519 17.4329 23.3519 22.9941 21.7777C25.12 21.1759 26.0531 18.5894 24.8308 16.6865L23.4927 14.6032C22.9466 13.753 22.6552 12.7541 22.6552 11.7324Z"
				stroke="currentColor" stroke-width="2" />
			<path
				d="M9.0625 22.9583C9.85399 25.0703 11.9896 26.5833 14.5 26.5833C17.0104 26.5833 19.146 25.0703 19.9375 22.9583"
				stroke="currentColor" stroke-width="2" stroke-linecap="round" />
		</g>
	</symbol>
	<symbol id="svg-sort" viewBox="0 0 19 19"><g>
			
				<path d="M3.16675 13.4583H8.70841" stroke="currentColor" stroke-width="1.5"
					stroke-linecap="round" />
				<path d="M3.16675 9.5L8.70841 9.5" stroke="currentColor" stroke-width="1.5"
					stroke-linecap="round" />
				<path d="M3.16675 5.54166L8.70841 5.54166" stroke="currentColor" stroke-width="1.5"
					stroke-linecap="round" />
				<path
					d="M13.4583 3.16668L13.4583 15.8333M13.4583 3.16668L11.0833 6.33334M13.4583 3.16668L15.8333 6.33334M13.4583 15.8333L15.8333 12.6667M13.4583 15.8333L11.0833 12.6667"
					stroke="currentColor" stroke-width="1.5" stroke-linecap="round"
					stroke-linejoin="round" />
		
	</g>
    </symbol>

	<symbol id="svg-check" viewBox="0 0 20 20">
		<g>
			
				<path d="M5.26318 10.5263L8.02008 13.6842L14.9123 5.78946" fill="transparent" stroke="white"
					stroke-width="1.5" stroke-linecap="round" stroke-linejoin="round" />
			
		</g>
	</symbol>
</svg>